<svg width="21" height="20" viewBox="0 0 21 20" fill="none" xmlns="http://www.w3.org/2000/svg">
<path d="M9.66699 3.33332H3.83366C3.39163 3.33332 2.96771 3.50891 2.65515 3.82147C2.34259 4.13403 2.16699 4.55796 2.16699 4.99999V16.6667C2.16699 17.1087 2.34259 17.5326 2.65515 17.8452C2.96771 18.1577 3.39163 18.3333 3.83366 18.3333H15.5003C15.9424 18.3333 16.3663 18.1577 16.6788 17.8452C16.9914 17.5326 17.167 17.1087 17.167 16.6667V10.8333M15.917 2.08332C16.2485 1.7518 16.6982 1.56555 17.167 1.56555C17.6358 1.56555 18.0855 1.7518 18.417 2.08332C18.7485 2.41484 18.9348 2.86448 18.9348 3.33332C18.9348 3.80216 18.7485 4.2518 18.417 4.58332L10.5003 12.5L7.16699 13.3333L8.00033 9.99999L15.917 2.08332Z" stroke="#667085" stroke-width="1.4" stroke-linecap="round" stroke-linejoin="round"/>
</svg>
