<svg width="4" height="16" viewBox="0 0 4 16" fill="none" xmlns="http://www.w3.org/2000/svg">
<path d="M2.00033 8.83334C2.46056 8.83334 2.83366 8.46025 2.83366 8.00001C2.83366 7.53977 2.46056 7.16668 2.00033 7.16668C1.54009 7.16668 1.16699 7.53977 1.16699 8.00001C1.16699 8.46025 1.54009 8.83334 2.00033 8.83334Z" stroke="#667085" stroke-width="1.6" stroke-linecap="round" stroke-linejoin="round"/>
<path d="M2.00033 3.00001C2.46056 3.00001 2.83366 2.62691 2.83366 2.16668C2.83366 1.70644 2.46056 1.33334 2.00033 1.33334C1.54009 1.33334 1.16699 1.70644 1.16699 2.16668C1.16699 2.62691 1.54009 3.00001 2.00033 3.00001Z" stroke="#667085" stroke-width="1.6" stroke-linecap="round" stroke-linejoin="round"/>
<path d="M2.00033 14.6667C2.46056 14.6667 2.83366 14.2936 2.83366 13.8333C2.83366 13.3731 2.46056 13 2.00033 13C1.54009 13 1.16699 13.3731 1.16699 13.8333C1.16699 14.2936 1.54009 14.6667 2.00033 14.6667Z" stroke="#667085" stroke-width="1.6" stroke-linecap="round" stroke-linejoin="round"/>
</svg>
